<svg width="120" height="40" viewBox="0 0 120 40" fill="none" xmlns="http://www.w3.org/2000/svg">
  <rect width="120" height="40" rx="6" fill="transparent"/>
  <path d="M16 30L22.5 10H27.2L20.8 30H16Z" fill="#1A1F71"/>
  <path d="M33.2 10.4C31.5 10.4 30.1 11.3 29.4 12.8C28.4 15 29.5 17.2 31.8 18.4C34.1 19.6 34.6 20.3 34.3 21.2C33.9 22.6 32.2 23.3 30.8 23.3C28.8 23.3 27.7 22.9 26 22.1L25.3 21.8L24.5 26.2C25.7 26.8 27.8 27.4 30 27.4C34.5 27.4 37.5 25.2 38.3 21.1C38.9 17.8 37.1 15.4 33.4 13.6C31.2 12.5 29.9 11.9 30.2 10.9C30.5 10.1 31.4 9.3 33.4 9.3C35 9.2 36.2 9.7 37.1 10.1L37.6 10.3L38.4 6.1C37.4 5.7 35.8 5.3 33.9 5.3L33.2 10.4Z" fill="#1A1F71"/>
  <path d="M49.7 10H46.1C45 10 44.2 10.3 43.8 11.6L36.9 30H41.4C41.4 30 42.2 27.8 42.4 27.3C42.9 27.3 47.2 27.3 47.8 27.3C48 27.9 48.6 30 48.6 30H52.6L49.7 10ZM43.7 23.8C44.1 22.8 45.6 18.7 45.6 18.7C45.6 18.8 46 17.7 46.2 17L46.5 18.6C46.5 18.6 47.3 22.7 47.5 23.8H43.7Z" fill="#1A1F71"/>
  <path d="M59.7 10L56.1 30H51.8L55.4 10H59.7Z" fill="#1A1F71"/>
  <path d="M64.7 10L61.8 26.1C64.8 28.1 68.9 29.1 73.6 29.1C79.5 29.1 82.8 26.5 83.8 22.2C84.6 18.8 82.8 16.2 79 14.4C76.6 13.3 75.3 12.7 75.6 11.7C75.8 11 76.8 10.1 78.9 10C81 9.9 82.5 10.5 83.6 11L84.1 11.2L84.9 7.1C83.7 6.6 81.9 6.1 79.6 6.1C74 6.1 70.2 9.1 69.1 13.4C68.3 16.6 70.2 19.1 73.8 20.8C76 21.9 77 22.6 76.7 23.6C76.3 25 74.6 25.6 72.9 25.6C70.8 25.6 69 25 67.6 24.3L66.8 23.9L65.9 28.2C67.3 28.8 69.9 29.5 72.5 29.6L64.7 10Z" fill="#1A1F71"/>
  <path d="M12 34H108" stroke="#F7B600" stroke-width="2.2" stroke-linecap="round"/>
</svg>
